<svg width="144" height="41" viewBox="0 0 144 41" fill="none" xmlns="http://www.w3.org/2000/svg">
<path d="M0.699616 12.8146L6.90042 24.1609C7.33018 24.9497 8.37388 25.5564 9.2334 25.5564H21.8806C22.7401 25.5564 23.1085 24.9497 22.6787 24.1609L16.4165 12.7539C15.9867 11.9652 14.943 11.3584 14.0835 11.3584H1.43635H1.37495C0.638222 11.4191 0.269858 12.0258 0.699616 12.8146Z" fill="#220D4E"/>
<path d="M24.7028 25.9806L28.4478 32.7155C28.6934 33.2009 29.3073 33.565 29.8599 33.565L37.35 33.4436C37.8411 33.4436 38.0867 33.0796 37.8411 32.5942L34.0961 25.8592C33.8505 25.3738 33.2366 25.0098 32.684 25.0098L25.1325 25.0704C24.6414 25.1918 24.3958 25.5558 24.7028 25.9806Z" fill="#220D4E"/>
<path d="M24.704 0.496993L17.2139 9.78033C16.7227 10.3871 16.6613 11.5399 17.0911 12.3287L23.3533 23.6143C23.7831 24.4031 24.5198 24.5244 25.0723 23.857L32.6238 14.5737C33.115 13.9669 33.1764 12.8141 32.7466 12.0253L26.423 0.739695C26.1774 0.314967 25.8091 0.0722656 25.4407 0.0722656C25.1951 0.0722656 24.9495 0.193616 24.704 0.496993Z" fill="#220D4E"/>
<path d="M22.9852 26.1021L18.5034 31.6236C18.1965 31.9876 18.1351 32.6551 18.4421 33.1405L22.1871 39.8754C22.4327 40.3608 22.9238 40.4215 23.2308 39.9968L27.7126 34.4753C28.0195 34.1113 28.0809 33.4438 27.774 32.9584L24.0289 26.2235C23.9061 25.9808 23.6606 25.7987 23.4764 25.8594C23.2308 25.8594 23.108 25.9201 22.9852 26.1021Z" fill="#220D4E"/>
<path d="M107.71 9.90137H105.192V28.0433H107.71V9.90137Z" fill="#220D4E"/>
<path d="M60.1904 15.666C56.5681 15.666 53.6826 18.4571 53.6826 21.9156V33.5046H56.1998V21.9156C56.1998 19.7919 57.9802 18.0324 60.2518 18.0324C62.462 18.0324 64.3038 19.7919 64.3038 21.9156C64.3038 24.0392 62.5234 25.7988 60.2518 25.7988C59.0239 25.7988 57.8574 25.2527 57.1207 24.4033V27.437C58.0416 27.9224 59.0853 28.1651 60.1904 28.1651C63.8127 28.1651 66.6982 25.3741 66.6982 21.9156C66.6982 18.4571 63.8127 15.666 60.1904 15.666Z" fill="#220D4E"/>
<path d="M74.373 15.666C70.7508 15.666 67.8652 18.4571 67.8652 21.9156V33.5046H70.3824V21.9156C70.3824 19.7919 72.1628 18.0324 74.4344 18.0324C76.6446 18.0324 78.4864 19.7919 78.4864 21.9156C78.4864 24.0392 76.706 25.7988 74.4344 25.7988C73.2065 25.7988 72.04 25.2527 71.3033 24.4033V27.437C72.2242 27.9224 73.2679 28.1651 74.373 28.1651C77.9953 28.1651 80.8808 25.3741 80.8808 21.9156C80.8808 18.4571 77.9339 15.666 74.373 15.666Z" fill="#220D4E"/>
<path d="M45.6386 9.90137C42.0164 9.90137 39.1309 12.6924 39.1309 16.1509V28.0433H41.648V16.2116C41.648 14.088 43.4284 12.3891 45.6386 12.3891C47.8488 12.3891 49.6293 14.088 49.6293 16.2116V17.5465H43.1829V19.9735H49.6293V28.104H52.1464V16.2116C52.1464 12.6924 49.1995 9.90137 45.6386 9.90137Z" fill="#220D4E"/>
<path d="M96.7818 16.2115C96.7818 14.0878 98.5622 12.3889 100.772 12.3889H103.965V9.96191H100.772C97.1502 9.96191 94.2646 12.753 94.2646 16.2115V28.1039H96.7818V20.2161H103.719V17.789H96.7818V16.2115Z" fill="#220D4E"/>
<path d="M118.209 15.7266V23.311C118.147 24.8279 116.858 26.0414 115.262 26.0414C113.666 26.0414 112.376 24.8279 112.315 23.311V15.7266H109.798V23.311C109.798 25.738 111.578 27.801 113.973 28.347V33.5044H116.49V28.347C118.884 27.801 120.665 25.7987 120.665 23.311V15.7266H118.209Z" fill="#220D4E"/>
<path d="M132.328 22.8865C132.082 23.8573 131.407 24.7068 130.425 25.2529C128.521 26.345 126.066 25.6776 124.96 23.8573C123.855 22.0371 124.531 19.6707 126.434 18.5786C127.969 17.7291 129.872 17.9718 131.1 19.064L125.452 22.2191L126.679 24.2821L134.538 19.9134C134.415 19.5494 134.231 19.1853 134.047 18.8213C132.266 15.8482 128.276 14.8167 125.145 16.5156C122.014 18.2752 120.97 22.0977 122.75 25.0708C124.531 28.0439 128.521 29.0754 131.652 27.3765C133.433 26.4057 134.538 24.7068 134.845 22.8865H132.328Z" fill="#220D4E"/>
<path d="M142.767 15.666C141.232 15.666 139.881 16.1514 138.776 17.0009V15.7267H136.259V28.1045H138.776V21.9156C138.776 19.7919 140.556 18.093 142.767 18.093H143.258V15.666H142.767Z" fill="#220D4E"/>
<path d="M90.3955 22.3397L84.1333 19.5486C83.8264 19.4272 83.7036 19.0632 83.8264 18.7598C83.9492 18.5171 84.1333 18.3958 84.3789 18.3958H91.5006V15.9688H84.3789C83.2124 15.9688 82.0459 16.6362 81.5548 17.7283C80.8181 19.2452 81.4934 21.0048 83.0282 21.7329L89.2904 24.524C89.5974 24.6453 89.7202 25.0094 89.5974 25.3128C89.4746 25.5555 89.2904 25.6768 89.0449 25.6768H81.739V28.1038H89.0449C90.2114 28.1038 91.3778 27.4364 91.869 26.3442C92.6671 24.8274 91.9918 23.0678 90.3955 22.3397Z" fill="#220D4E"/>
</svg>
